PathFileType	4	(X/Y/Z)	Walk5.trc
DataRate	CameraRate	NumFrames	NumMarkers	Units	OrigDataRate	OrigDataStartFrame	OrigNumFrames
200.000000	200.000000	4	61	mm	200.000000	288	487
Frame#	Times		LFHD		RFHD		CLAV		LASI		RASI		RACR1		RUA1		RFA1		RWRU		RCAR		LACR1		LUA1		LWRU		LCAR		RTH3		LTH1		LTH3		LTH2		LTH4		LLFC		LTB1		LTB2		LTB4		LFA1		RTB1		LToe		LTB3		STRN		RTB4		RWRR		RTB3		RMFC		RMT5		RTH2		LBHD		RMT1		RTB2		LElbow		RLFC		RMMAL		LMFC		RTH4		RToe		LWRR		T10		RElbow		RTH1		LPSI		RBack		RBHD		LMT5		RLMAL		RCAL		RPSI		LElbowM		LMMAL		RElbowM		LCAL		LLMAL		LMT1		C7
			X1	Y1	Z1	X2	Y2	Z2	X3	Y3	Z3	X4	Y4	Z4	X5	Y5	Z5	X6	Y6	Z6	X7	Y7	Z7	X8	Y8	Z8	X9	Y9	Z9	X10	Y10	Z10	X11	Y11	Z11	X12	Y12	Z12	X13	Y13	Z13	X14	Y14	Z14	X15	Y15	Z15	X16	Y16	Z16	X17	Y17	Z17	X18	Y18	Z18	X19	Y19	Z19	X20	Y20	Z20	X21	Y21	Z21	X22	Y22	Z22	X23	Y23	Z23	X24	Y24	Z24	X25	Y25	Z25	X26	Y26	Z26	X27	Y27	Z27	X28	Y28	Z28	X29	Y29	Z29	X30	Y30	Z30	X31	Y31	Z31	X32	Y32	Z32	X33	Y33	Z33	X34	Y34	Z34	X35	Y35	Z35	X36	Y36	Z36	X37	Y37	Z37	X38	Y38	Z38	X39	Y39	Z39	X40	Y40	Z40	X41	Y41	Z41	X42	Y42	Z42	X43	Y43	Z43	X44	Y44	Z44	X45	Y45	Z45	X46	Y46	Z46	X47	Y47	Z47	X48	Y48	Z48	X49	Y49	Z49	X50	Y50	Z50	X51	Y51	Z51	X52	Y52	Z52	X53	Y53	Z53	X54	Y54	Z54	X55	Y55	Z55	X56	Y56	Z56	X57	Y57	Z57	X58	Y58	Z58	X59	Y59	Z59	X60	Y60	Z60	X61	Y61	Z61

288	1.44	101.17	1596.7	-80.622	94.297	1599.2	18.81	56.56	1317	-30.468	29.435	911.57	-135.69	27.695	924.52	113.08	-22.888	1356.7	130.58	-47.454	1188.9	185.98	-34.97	900.21	250.04	24.431	789.24	230.01	4.3733	719.65	272.62	-2.6857	1371.2	-183.25	3.9561	1206.9	-264.49	216.11	892.19	-299.68	243.24	827.71	-333.74	89.396	609.03	150.24	-47.864	748.36	-200.16	-91.283	585.2	-167.81	-16.656	658.27	-161.07	-70.894	666.08	-185.2	-133.93	447.98	-146.43	-119.88	345.01	-78.934	-162.12	262.78	-131.71	-149.09	263.94	-71.848	111.32	952.23	-328.8	174.63	369.65	94.383	-59.205	24.4	-59.29	-171.57	182.85	-63.902	74.53	1183	-20.697	164.25	284.19	86.813	-39.575	778.5	252.5	153.45	200.27	76.255	139.86	473.28	-0.17194	196.4	50.608	99.936	99.189	713.7	158.24	-36.846	1525.6	-110.55	233.79	70.472	24.644	117.6	287.01	126.25	10.532	1056.1	-312.36	149.96	477.45	124.26	112.93	113.43	8.5262	-163.4	447.37	-15.862	51.893	682.29	170.78	278.49	75.003	61.944	165.1	847.96	-315.48	-131.99	1212.6	-34.401	-73.576	1024.6	219.46	11.145	756.56	192.15	-143.97	972.49	-62.633	-134.29	1298.8	31.116	-44.413	1535.1	32.063	-149.67	23.644	-112.06	93.651	92.003	87.803	47.003	64.014	38.494	-142.58	964.84	37.504	-11.682	1024.4	-248.73	-231.84	102.15	-23.11	-94.245	1018.5	142.62	-307.09	63.695	-59.81	-248.61	83.282	-101.61	-116.8	30.236	-30.591	-49.965	1421.9	-38.238
289	1.445	108.81	1595.8	-80.584	101.9	1598.3	18.847	64.413	1316	-30.43	36.811	910.64	-135.94	36.277	923.47	113.04	-15.073	1355.7	130.58	-40.402	1188.2	186.12	-28.635	899.44	250.58	30.495	788.33	230.72	10.246	718.74	273.26	5.3123	1370.5	-183.05	13.214	1206.3	-264.51	228.92	894.96	-298.3	257.37	830.83	-331.98	97.079	607.7	150.11	-42.082	748.02	-200.39	-86.862	585.24	-167.97	-11.585	657.61	-161.54	-65.791	665.93	-185.44	-130.83	448.34	-146.57	-117.37	345.12	-79.146	-160.31	263.24	-131.9	-147.17	264.27	-72.072	123.45	953.28	-328.25	187.11	370.48	94.172	-59.132	24.291	-59.273	-170.22	183.33	-64.173	82.337	1181.8	-20.646	180.07	284.64	86.765	-33.601	777.7	253.09	172.59	200.34	76.388	147.16	472.21	-0.20353	221.33	52.14	100.1	107.16	712.29	158.73	-29.072	1524.5	-110.56	257.72	73.211	24.615	133.67	285.63	126.55	21.115	1055.7	-312.68	158.81	476.93	124.07	135.21	111.92	8.9646	-159.77	447.89	-15.873	59.692	680.94	170.98	302.3	79.345	61.6	178.74	849.87	-314.45	-124.17	1211.7	-34.307	-66.878	1023.9	219.74	19.225	755.18	192.67	-136.33	971.37	-61.725	-126.44	1297.8	31.068	-36.709	1534	32.054	-149.64	23.678	-112.01	117.09	89.74	88.378	71.214	60.022	39.2	-134.44	963.66	38.319	-1.3588	1023.6	-249.27	-231.17	103.08	-23.237	-87.397	1017.7	142.94	-306.73	65.222	-59.896	-248.12	84.332	-101.73	-116.76	30.185	-30.584	-42.035	1421	-38.208
290	1.45	116.46	1594.9	-80.54	109.53	1597.4	18.892	72.289	1314.9	-30.383	44.204	909.69	-136.21	44.93	922.39	112.97	-7.1946	1354.7	130.59	-33.255	1187.3	186.29	-22.218	898.65	251.15	36.643	787.39	231.46	16.206	717.8	273.92	13.307	1369.7	-182.83	22.476	1205.8	-264.47	241.52	897.6	-296.93	271.22	833.83	-330.24	104.6	606.2	150.07	-36.251	747.66	-200.61	-82.342	585.27	-168.13	-6.4364	656.96	-162.05	-60.612	665.76	-185.69	-127.58	448.7	-146.68	-114.74	345.19	-79.35	-158.41	263.7	-132.08	-145.15	264.6	-72.291	135.43	954.27	-327.67	199.36	371.27	93.994	-59.059	24.188	-59.248	-168.8	183.8	-64.442	90.169	1180.6	-20.595	195.6	285.18	86.735	-27.548	776.87	253.71	191.4	200.61	76.533	154.25	470.88	-0.23324	245.81	54.01	100.23	115.09	710.7	159.17	-21.288	1523.4	-110.56	281.14	76.232	24.532	149.5	284.39	126.86	31.645	1055.3	-312.94	167.51	476.27	123.91	157.13	110.74	9.3956	-155.96	448.39	-15.866	67.405	679.46	171.22	325.56	83.952	61.166	192.14	851.71	-313.39	-116.33	1210.7	-34.18	-60.095	1023.1	220.04	27.328	753.76	193.19	-128.66	970.19	-60.77	-118.55	1296.8	31.067	-28.984	1532.8	32.066	-149.62	23.721	-111.96	140.2	87.867	88.939	95.121	56.466	39.901	-126.24	962.43	39.179	8.9269	1022.7	-249.72	-230.44	104.05	-23.366	-80.488	1016.8	143.29	-306.33	66.806	-59.989	-247.6	85.42	-101.86	-116.71	30.131	-30.571	-34.087	1420	-38.145
291	1.455	124.11	1594	-80.486	117.17	1596.4	18.947	80.187	1313.8	-30.327	51.621	908.72	-136.5	53.652	921.3	112.88	0.74331	1353.7	130.63	-26.012	1186.5	186.49	-15.719	897.82	251.74	42.875	786.41	232.21	22.254	716.83	274.6	21.297	1369	-182.59	31.738	1205.2	-264.38	253.91	900.11	-295.57	284.77	836.7	-328.54	111.99	604.53	150.17	-30.355	747.3	-200.83	-77.713	585.3	-168.29	-1.1973	656.31	-162.57	-55.345	665.57	-185.94	-124.16	449.04	-146.78	-111.97	345.25	-79.545	-156.42	264.17	-132.25	-143.03	264.91	-72.5	147.25	955.19	-327.05	211.37	372.02	93.851	-58.985	24.09	-59.216	-167.31	184.28	-64.706	98.026	1179.4	-20.548	210.82	285.79	86.727	-21.413	776.02	254.35	209.83	201.06	76.69	161.18	469.3	-0.26104	269.73	56.174	100.33	122.97	708.94	159.58	-13.493	1522.2	-110.54	303.98	79.491	24.405	165.06	283.27	127.18	42.109	1054.9	-313.12	176.08	475.49	123.77	178.63	109.89	9.8109	-151.96	448.85	-15.838	75.056	677.88	171.52	348.2	88.769	60.653	205.31	853.48	-312.32	-108.47	1209.8	-34.021	-53.226	1022.4	220.38	35.464	752.3	193.68	-120.94	968.96	-59.772	-110.62	1295.7	31.111	-21.239	1531.6	32.1	-149.58	23.774	-111.9	162.89	86.37	89.477	118.63	53.335	40.582	-117.97	961.18	40.082	19.166	1021.9	-250.08	-229.68	105.04	-23.496	-73.514	1015.9	143.67	-305.9	68.452	-60.087	-247.04	86.551	-102	-116.65	30.073	-30.552	-26.124	1418.9	-38.047
